#!OML:ASF F:\VICON\USERDATA\INSTALL\rory3\rory3.ASF
:FULLY-SPECIFIED
:DEGREES
242
root 1.11917 19.8435 -8.96931 12.687 -3.55145 0.643499
lowerback 4.73133 1.40203 -0.0342247
upperback -1.02964 1.96173 2.55177
thorax -3.80809 1.00623 2.49792
lowerneck -19.312 -3.71974 -9.8752
upperneck 20.6977 -3.86873 6.86722
head 10.1236 -1.76844 3.52011
rclavicle -3.33958e-014 -2.8625e-014
rhumerus -45.5585 28.4123 -49.4539
rradius 126.643
rwrist -2.63885
rhand 2.52674 15.0982
rfingers 7.12502
rthumb 28.0082 -12.8318
lclavicle -3.33958e-014 -2.8625e-014
lhumerus -28.4512 -17.5558 44.0893
lradius 118.363
lwrist 5.28469
lhand -21.7742 14.6908
lfingers 7.12502
lthumb 4.62683 44.6202
rfemur -4.21493 1.70996 15.5566
rtibia 24.041
rfoot 25.1249 -5.61719
rtoes 4.68774
lfemur -1.77839 -4.53765 -20.5729
ltibia 17.9964
lfoot 32.4748 1.21278
ltoes 0.432153
243
root 1.10754 20.1827 -8.74116 12.4453 -3.80718 0.794769
lowerback 4.07442 1.36429 -0.188559
upperback -0.935001 1.89032 2.51274
thorax -3.33992 0.971049 2.56521
lowerneck -19.2075 -3.56207 -9.7565
upperneck 21.9218 -3.62409 6.39792
head 10.5117 -1.71636 3.39045
rclavicle -1.98785e-015 -2.06736e-014
rhumerus -46.1288 29.2723 -50.312
rradius 125.939
rwrist -3.64306
rhand 2.05922 14.5964
rfingers 7.12502
rthumb 27.5612 -13.4057
lclavicle -1.98785e-015 -2.06736e-014
lhumerus -29.8238 -17.3365 43.4557
lradius 116.3
lwrist 5.09376
lhand -22.1534 15.1039
lfingers 7.12502
lthumb 4.26067 45.0411
rfemur -4.14773 2.11735 15.464
rtibia 24.925
rfoot 26.1999 -5.72514
rtoes 7.28394
lfemur -1.32342 -3.04207 -20.727
ltibia 17.7581
lfoot 34.462 -0.338245
ltoes 5.87204
244
root 1.09845 20.5124 -8.53217 12.1864 -4.16862 1.07207
lowerback 3.73538 1.36352 -0.572133
upperback -0.9313 1.86566 2.48337
thorax -3.15537 0.965087 2.75987
lowerneck -18.3588 -3.3903 -9.66613
upperneck 22.5995 -3.38522 5.87728
head 10.5658 -1.68269 3.23673
rclavicle 2.18663e-015 1.90833e-014
rhumerus -46.9227 29.9826 -51.1035
rradius 125.219
rwrist -4.03451
rhand 2.42544 14.5294
rfingers 7.12502
rthumb 27.9114 -13.4164
lclavicle 2.18663e-015 1.90833e-014
lhumerus -31.226 -16.743 43.1621
lradius 114.1
lwrist 5.21583
lhand -22.4016 15.741
lfingers 7.12502
lthumb 4.021 45.6828
rfemur -4.4245 2.45416 15.2416
rtibia 26.5032
rfoot 26.5253 -5.11912
rtoes 12.7186
lfemur -1.12875 -1.20463 -20.9896
ltibia 18.1218
lfoot 33.9617 -1.76684
ltoes 5.36221
245
root 1.08681 20.8437 -8.34581 11.935 -4.45899 1.46091
lowerback 3.59568 1.36274 -1.11174
upperback -0.907577 1.83636 2.42943
thorax -3.06628 0.959367 3.01319
lowerneck -17.3529 -3.25676 -9.73979
upperneck 23.1367 -3.2157 5.57194
head 10.5524 -1.66938 3.17626
rclavicle -2.38542e-015 0
rhumerus -47.5694 30.3599 -51.9758
rradius 124.16
rwrist -3.41661
rhand 2.51557 14.289
rfingers 7.12502
rthumb 27.9976 -13.6427
lclavicle -2.38542e-015 0
lhumerus -32.4252 -15.8243 43.1387
lradius 111.605
lwrist 4.97489
lhand -22.9821 16.3943
lfingers 7.12502
lthumb 3.46037 46.346
rfemur -5.06832 2.60526 14.9745
rtibia 28.52
rfoot 27.3472 -4.54717
rtoes 16.7304
lfemur -1.19667 0.188092 -21.3516
ltibia 18.9061
lfoot 33.1283 -3.05374
ltoes 1.01689
246
root 1.0696 21.1773 -8.17647 11.4256 -4.56339 1.63565
lowerback 3.82367 1.36469 -1.4231
upperback -0.592528 1.81851 2.41333
thorax -2.87783 0.950311 3.17152
lowerneck -17.1682 -3.24932 -9.8834
upperneck 24.1181 -3.16643 5.41042
head 10.8755 -1.69638 3.16786
rclavicle -2.46493e-014 -2.46493e-014
rhumerus -47.4427 30.3736 -52.8538
rradius 122.646
rwrist -2.16716
rhand 2.45359 13.7211
rfingers 7.12502
rthumb 27.9383 -14.2203
lclavicle -2.46493e-014 -2.46493e-014
lhumerus -33.1238 -14.3491 43.2916
lradius 108.951
lwrist 4.3988
lhand -22.4137 15.9537
lfingers 7.12502
lthumb 4.00927 45.8957
rfemur -5.64207 2.45111 15.0582
rtibia 30.7661
rfoot 28.7404 -4.73948
rtoes 16.2212
lfemur -1.25284 0.842048 -21.5184
ltibia 20.0644
lfoot 33.9095 -3.8773
ltoes -1.18614
247
root 1.0603 21.5005 -8.00651 10.7264 -4.63609 1.69112
lowerback 4.36187 1.37013 -1.48786
upperback -0.270383 1.81584 2.41304
thorax -2.84993 0.945654 3.19976
lowerneck -16.7007 -3.22401 -10.0045
upperneck 24.9087 -3.12256 5.25281
head 11.0766 -1.72553 3.15385
rclavicle 1.31198e-014 1.82882e-014
rhumerus -47.135 30.3492 -53.8584
rradius 120.839
rwrist -0.680576
rhand 2.5641 13.1854
rfingers 7.12502
rthumb 28.044 -14.7388
lclavicle 1.31198e-014 1.82882e-014
lhumerus -33.7192 -12.6371 43.7652
lradius 106.055
lwrist 3.48383
lhand -22.3695 14.8704
lfingers 7.12502
lthumb 4.05194 44.8116
rfemur -6.0583 2.00544 15.2712
rtibia 33.0176
rfoot 30.0258 -4.75985
rtoes 14.2531
lfemur -1.37531 1.18916 -21.6278
ltibia 21.7052
lfoot 36.3432 -4.34242
ltoes 3.15042
